[2026-03-15 11:57:23] [INFO] Jarvis Desktop launcher started.
[2026-03-15 11:57:23] [INFO] Runtime log path: C:\Jarvis\logs\runtime_2026-03-15_11-57-23.txt
[2026-03-15 11:57:23] [INFO] Launcher executable: C:\Users\anden\AppData\Local\Python\pythoncore-3.14-64\pythonw.exe
[2026-03-15 11:57:23] [INFO] Root directory: C:\Jarvis
[2026-03-15 11:57:23] [INFO] Target script: C:\Jarvis\jarvis_desktop_test.py
[2026-03-15 11:57:23] [INFO] Diagnostics script: C:\Jarvis\desktop\jarvis_diagnostics.pyw
[2026-03-15 11:57:23] [INFO] Recovery attempts allowed: 3
[2026-03-15 11:57:23] [INFO] Voice hook ready: C:\Jarvis\jarvis_voice.py
[2026-03-15 11:57:23] [INFO] Starting desktop renderer process. attempt=1
[2026-03-15 11:57:23] [INFO] Child executable: C:\Users\anden\AppData\Local\Python\pythoncore-3.14-64\pythonw.exe
[2026-03-15 11:57:23] [STDOUT] Jarvis Desktop Concept 1 - Version 1.02
[2026-03-15 11:57:23] [STDOUT] Hotkey: Ctrl + Alt + End
[2026-03-15 11:57:23] [STDERR] Traceback (most recent call last):
[2026-03-15 11:57:23] [STDERR]   File "C:\Jarvis\jarvis_desktop_test.py", line 44, in <module>
[2026-03-15 11:57:23] [STDERR]     raise SystemExit(main())
[2026-03-15 11:57:23] [STDERR]                      ~~~~^^
[2026-03-15 11:57:23] [STDERR]   File "C:\Jarvis\jarvis_desktop_test.py", line 36, in main
[2026-03-15 11:57:23] [STDERR]     raise RuntimeError("Jarvis test crash triggered intentionally")
[2026-03-15 11:57:23] [STDERR] RuntimeError: Jarvis test crash triggered intentionally
[2026-03-15 11:57:23] [INFO] Desktop renderer exited. exit_code=1
[2026-03-15 11:57:23] [WARN] Recovery attempt 1/3
[2026-03-15 11:57:24] [INFO] Starting desktop renderer process. attempt=2
[2026-03-15 11:57:24] [INFO] Child executable: C:\Users\anden\AppData\Local\Python\pythoncore-3.14-64\pythonw.exe
[2026-03-15 11:57:25] [STDOUT] Jarvis Desktop Concept 1 - Version 1.02
[2026-03-15 11:57:25] [STDOUT] Hotkey: Ctrl + Alt + End
[2026-03-15 11:57:25] [STDERR] Traceback (most recent call last):
[2026-03-15 11:57:25] [STDERR]   File "C:\Jarvis\jarvis_desktop_test.py", line 44, in <module>
[2026-03-15 11:57:25] [STDERR]     raise SystemExit(main())
[2026-03-15 11:57:25] [STDERR]                      ~~~~^^
[2026-03-15 11:57:25] [STDERR]   File "C:\Jarvis\jarvis_desktop_test.py", line 36, in main
[2026-03-15 11:57:25] [STDERR]     raise RuntimeError("Jarvis test crash triggered intentionally")
[2026-03-15 11:57:25] [STDERR] RuntimeError: Jarvis test crash triggered intentionally
[2026-03-15 11:57:25] [INFO] Desktop renderer exited. exit_code=1
[2026-03-15 11:57:25] [WARN] Recovery attempt 2/3
[2026-03-15 11:57:26] [INFO] Starting desktop renderer process. attempt=3
[2026-03-15 11:57:26] [INFO] Child executable: C:\Users\anden\AppData\Local\Python\pythoncore-3.14-64\pythonw.exe
[2026-03-15 11:57:26] [STDOUT] Jarvis Desktop Concept 1 - Version 1.02
[2026-03-15 11:57:26] [STDOUT] Hotkey: Ctrl + Alt + End
[2026-03-15 11:57:26] [STDERR] Traceback (most recent call last):
[2026-03-15 11:57:26] [STDERR]   File "C:\Jarvis\jarvis_desktop_test.py", line 44, in <module>
[2026-03-15 11:57:26] [STDERR]     raise SystemExit(main())
[2026-03-15 11:57:26] [STDERR]                      ~~~~^^
[2026-03-15 11:57:26] [STDERR]   File "C:\Jarvis\jarvis_desktop_test.py", line 36, in main
[2026-03-15 11:57:26] [STDERR]     raise RuntimeError("Jarvis test crash triggered intentionally")
[2026-03-15 11:57:26] [STDERR] RuntimeError: Jarvis test crash triggered intentionally
[2026-03-15 11:57:26] [INFO] Desktop renderer exited. exit_code=1
[2026-03-15 11:57:26] [ERROR] Crash log written: C:\Jarvis\logs\crash\crash_2026-03-15_11-57-26.txt
[2026-03-15 11:57:26] [INFO] Trying voice line 'Uhm..... Sir, I seem to be malfunctioning.' using voice --text --mode
[2026-03-15 11:57:33] [VOICE_STDOUT] ffmpeg version 2026-03-12-git-9dc44b43b2-essentials_build-www.gyan.dev Copyright (c) 2000-2026 the FFmpeg developers
[2026-03-15 11:57:33] [VOICE_STDOUT]   built with gcc 15.2.0 (Rev11, Built by MSYS2 project)
[2026-03-15 11:57:33] [VOICE_STDOUT]   configuration: --enable-gpl --enable-version3 --enable-static --disable-w32threads --disable-autodetect --enable-cairo --enable-fontconfig --enable-iconv --enable-gnutls --enable-libxml2 --enable-gmp --enable-bzlib --enable-lzma --enable-zlib --enable-libsrt --enable-libssh --enable-libzmq --enable-avisynth --enable-sdl2 --enable-libwebp --enable-libx264 --enable-libx265 --enable-libxvid --enable-libaom --enable-libopenjpeg --enable-libvpx --enable-mediafoundation --enable-libass --enable-libfreetype --enable-libfribidi --enable-libharfbuzz --enable-libvidstab --enable-libvmaf --enable-libzimg --enable-amf --enable-cuda-llvm --enable-cuvid --enable-dxva2 --enable-d3d11va --enable-d3d12va --enable-ffnvcodec --enable-libvpl --enable-nvdec --enable-nvenc --enable-vaapi --enable-openal --enable-libgme --enable-libopenmpt --enable-libopencore-amrwb --enable-libmp3lame --enable-libtheora --enable-libvo-amrwbenc --enable-libgsm --enable-libopencore-amrnb --enable-libopus --enable-libspeex --enable-libvorbis --enable-librubberband
[2026-03-15 11:57:33] [VOICE_STDOUT]   libavutil      60. 27.100 / 60. 27.100
[2026-03-15 11:57:33] [VOICE_STDOUT]   libavcodec     62. 29.100 / 62. 29.100
[2026-03-15 11:57:33] [VOICE_STDOUT]   libavformat    62. 13.100 / 62. 13.100
[2026-03-15 11:57:33] [VOICE_STDOUT]   libavdevice    62.  4.100 / 62.  4.100
[2026-03-15 11:57:33] [VOICE_STDOUT]   libavfilter    11. 15.101 / 11. 15.101
[2026-03-15 11:57:33] [VOICE_STDOUT]   libswscale      9.  6.100 /  9.  6.100
[2026-03-15 11:57:33] [VOICE_STDOUT]   libswresample   6.  4.100 /  6.  4.100
[2026-03-15 11:57:33] [VOICE_STDOUT] [in#0/mp3 @ 0000015fd60cef80] Estimating duration from bitrate, this may be inaccurate
[2026-03-15 11:57:33] [VOICE_STDOUT] Input #0, mp3, from 'C:\Users\anden\AppData\Local\Temp\tmpxn83putu.mp3':
[2026-03-15 11:57:33] [VOICE_STDOUT]   Duration: 00:00:05.14, start: 0.000000, bitrate: 48 kb/s
[2026-03-15 11:57:33] [VOICE_STDOUT]   Stream #0:0: Audio: mp3 (mp3float), 24000 Hz, mono, fltp, 48 kb/s
[2026-03-15 11:57:33] [VOICE_STDOUT] Stream mapping:
[2026-03-15 11:57:33] [VOICE_STDOUT]   Stream #0:0 (mp3float) -> asplit:default
[2026-03-15 11:57:33] [VOICE_STDOUT]   volume:default -> Stream #0:0 (pcm_s16le)
[2026-03-15 11:57:33] [VOICE_STDOUT] Press [q] to stop, [?] for help
[2026-03-15 11:57:33] [VOICE_STDOUT] [Parsed_chorus_10 @ 0000015fd6155380] output gain can cause saturation or clipping of output
[2026-03-15 11:57:33] [VOICE_STDOUT] [Parsed_volume_13 @ 0000015fd6153c00] Invalid value NaN for volume
[2026-03-15 11:57:33] [VOICE_STDOUT] [Parsed_volume_13 @ 0000015fd6153c00] Failed to configure output pad on Parsed_volume_13
[2026-03-15 11:57:33] [VOICE_STDOUT] [fc#0 @ 0000015fd60c6d40] Error reinitializing filters!
[2026-03-15 11:57:33] [VOICE_STDOUT] [fc#0 @ 0000015fd60c6d40] Task finished with error code: -22 (Invalid argument)
[2026-03-15 11:57:33] [VOICE_STDOUT] [fc#0 @ 0000015fd60c6d40] Terminating thread with return code -22 (Invalid argument)
[2026-03-15 11:57:33] [VOICE_STDOUT] [aost#0:0/pcm_s16le @ 0000015fd60cce00] [enc:pcm_s16le @ 0000015fd60a9f40] Could not open encoder before EOF
[2026-03-15 11:57:33] [VOICE_STDOUT] [aost#0:0/pcm_s16le @ 0000015fd60cce00] Task finished with error code: -22 (Invalid argument)
[2026-03-15 11:57:33] [VOICE_STDOUT] [aost#0:0/pcm_s16le @ 0000015fd60cce00] Terminating thread with return code -22 (Invalid argument)
[2026-03-15 11:57:33] [VOICE_STDOUT] [out#0/wav @ 0000015fd60d5e80] Nothing was written into output file, because at least one of its streams received no packets.
[2026-03-15 11:57:33] [VOICE_STDOUT] size=       0KiB time=N/A bitrate=N/A speed=N/A elapsed=0:00:00.00    
[2026-03-15 11:57:33] [VOICE_STDOUT] Conversion failed!
[2026-03-15 11:57:33] [VOICE_STDERR] [mp3 @ 00000163F0A2C0C0] Estimating duration from bitrate, this may be inaccurate
[2026-03-15 11:57:33] [VOICE_STDERR] Input #0, mp3, from 'C:/Users/anden/AppData/Local/Temp/tmpxn83putu.mp3':
[2026-03-15 11:57:33] [VOICE_STDERR]   Duration: 00:00:05.14, start: 0.000000, bitrate: 48 kb/s
[2026-03-15 11:57:33] [VOICE_STDERR]   Stream #0:0: Audio: mp3 (mp3float), 24000 Hz, mono, fltp, 48 kb/s
[2026-03-15 11:57:33] [INFO] Voice line completed: Uhm..... Sir, I seem to be malfunctioning.
[2026-03-15 11:57:33] [INFO] Failure voice step 1/3 success=True line=Uhm..... Sir, I seem to be malfunctioning.
[2026-03-15 11:57:34] [INFO] Trying voice line 'Attempting restart.' using voice --text --mode
[2026-03-15 11:57:38] [VOICE_STDOUT] ffmpeg version 2026-03-12-git-9dc44b43b2-essentials_build-www.gyan.dev Copyright (c) 2000-2026 the FFmpeg developers
[2026-03-15 11:57:38] [VOICE_STDOUT]   built with gcc 15.2.0 (Rev11, Built by MSYS2 project)
[2026-03-15 11:57:38] [VOICE_STDOUT]   configuration: --enable-gpl --enable-version3 --enable-static --disable-w32threads --disable-autodetect --enable-cairo --enable-fontconfig --enable-iconv --enable-gnutls --enable-libxml2 --enable-gmp --enable-bzlib --enable-lzma --enable-zlib --enable-libsrt --enable-libssh --enable-libzmq --enable-avisynth --enable-sdl2 --enable-libwebp --enable-libx264 --enable-libx265 --enable-libxvid --enable-libaom --enable-libopenjpeg --enable-libvpx --enable-mediafoundation --enable-libass --enable-libfreetype --enable-libfribidi --enable-libharfbuzz --enable-libvidstab --enable-libvmaf --enable-libzimg --enable-amf --enable-cuda-llvm --enable-cuvid --enable-dxva2 --enable-d3d11va --enable-d3d12va --enable-ffnvcodec --enable-libvpl --enable-nvdec --enable-nvenc --enable-vaapi --enable-openal --enable-libgme --enable-libopenmpt --enable-libopencore-amrwb --enable-libmp3lame --enable-libtheora --enable-libvo-amrwbenc --enable-libgsm --enable-libopencore-amrnb --enable-libopus --enable-libspeex --enable-libvorbis --enable-librubberband
[2026-03-15 11:57:38] [VOICE_STDOUT]   libavutil      60. 27.100 / 60. 27.100
[2026-03-15 11:57:38] [VOICE_STDOUT]   libavcodec     62. 29.100 / 62. 29.100
[2026-03-15 11:57:38] [VOICE_STDOUT]   libavformat    62. 13.100 / 62. 13.100
[2026-03-15 11:57:38] [VOICE_STDOUT]   libavdevice    62.  4.100 / 62.  4.100
[2026-03-15 11:57:38] [VOICE_STDOUT]   libavfilter    11. 15.101 / 11. 15.101
[2026-03-15 11:57:38] [VOICE_STDOUT]   libswscale      9.  6.100 /  9.  6.100
[2026-03-15 11:57:38] [VOICE_STDOUT]   libswresample   6.  4.100 /  6.  4.100
[2026-03-15 11:57:38] [VOICE_STDOUT] [in#0/mp3 @ 0000022f2a337800] Estimating duration from bitrate, this may be inaccurate
[2026-03-15 11:57:38] [VOICE_STDOUT] Input #0, mp3, from 'C:\Users\anden\AppData\Local\Temp\tmp7tikyrhq.mp3':
[2026-03-15 11:57:38] [VOICE_STDOUT]   Duration: 00:00:02.66, start: 0.000000, bitrate: 48 kb/s
[2026-03-15 11:57:38] [VOICE_STDOUT]   Stream #0:0: Audio: mp3 (mp3float), 24000 Hz, mono, fltp, 48 kb/s
[2026-03-15 11:57:38] [VOICE_STDOUT] Stream mapping:
[2026-03-15 11:57:38] [VOICE_STDOUT]   Stream #0:0 (mp3float) -> asplit:default
[2026-03-15 11:57:38] [VOICE_STDOUT]   volume:default -> Stream #0:0 (pcm_s16le)
[2026-03-15 11:57:38] [VOICE_STDOUT] Press [q] to stop, [?] for help
[2026-03-15 11:57:38] [VOICE_STDOUT] [Parsed_chorus_10 @ 0000022f2a3b16c0] output gain can cause saturation or clipping of output
[2026-03-15 11:57:38] [VOICE_STDOUT] [Parsed_volume_13 @ 0000022f2a3b06c0] Invalid value NaN for volume
[2026-03-15 11:57:38] [VOICE_STDOUT] [Parsed_volume_13 @ 0000022f2a3b06c0] Failed to configure output pad on Parsed_volume_13
[2026-03-15 11:57:38] [VOICE_STDOUT] [fc#0 @ 0000022f2a326d00] Error reinitializing filters!
[2026-03-15 11:57:38] [VOICE_STDOUT] [fc#0 @ 0000022f2a326d00] Task finished with error code: -22 (Invalid argument)
[2026-03-15 11:57:38] [VOICE_STDOUT] [fc#0 @ 0000022f2a326d00] Terminating thread with return code -22 (Invalid argument)
[2026-03-15 11:57:38] [VOICE_STDOUT] [aost#0:0/pcm_s16le @ 0000022f2a32cb00] [enc:pcm_s16le @ 0000022f2a309e80] Could not open encoder before EOF
[2026-03-15 11:57:38] [VOICE_STDOUT] [aost#0:0/pcm_s16le @ 0000022f2a32cb00] Task finished with error code: -22 (Invalid argument)
[2026-03-15 11:57:38] [VOICE_STDOUT] [aost#0:0/pcm_s16le @ 0000022f2a32cb00] Terminating thread with return code -22 (Invalid argument)
[2026-03-15 11:57:38] [VOICE_STDOUT] [out#0/wav @ 0000022f2a335c80] Nothing was written into output file, because at least one of its streams received no packets.
[2026-03-15 11:57:38] [VOICE_STDOUT] size=       0KiB time=N/A bitrate=N/A speed=N/A elapsed=0:00:00.00    
[2026-03-15 11:57:38] [VOICE_STDOUT] Conversion failed!
[2026-03-15 11:57:38] [VOICE_STDERR] [mp3 @ 0000024129EF0F00] Estimating duration from bitrate, this may be inaccurate
[2026-03-15 11:57:38] [VOICE_STDERR] Input #0, mp3, from 'C:/Users/anden/AppData/Local/Temp/tmp7tikyrhq.mp3':
[2026-03-15 11:57:38] [VOICE_STDERR]   Duration: 00:00:02.66, start: 0.000000, bitrate: 48 kb/s
[2026-03-15 11:57:38] [VOICE_STDERR]   Stream #0:0: Audio: mp3 (mp3float), 24000 Hz, mono, fltp, 48 kb/s
[2026-03-15 11:57:38] [INFO] Voice line completed: Attempting restart.
[2026-03-15 11:57:38] [INFO] Failure voice step 2/3 success=True line=Attempting restart.
[2026-03-15 11:57:39] [INFO] Trying voice line 'Restart failed.' using voice --text --mode
[2026-03-15 11:57:43] [VOICE_STDOUT] ffmpeg version 2026-03-12-git-9dc44b43b2-essentials_build-www.gyan.dev Copyright (c) 2000-2026 the FFmpeg developers
[2026-03-15 11:57:43] [VOICE_STDOUT]   built with gcc 15.2.0 (Rev11, Built by MSYS2 project)
[2026-03-15 11:57:43] [VOICE_STDOUT]   configuration: --enable-gpl --enable-version3 --enable-static --disable-w32threads --disable-autodetect --enable-cairo --enable-fontconfig --enable-iconv --enable-gnutls --enable-libxml2 --enable-gmp --enable-bzlib --enable-lzma --enable-zlib --enable-libsrt --enable-libssh --enable-libzmq --enable-avisynth --enable-sdl2 --enable-libwebp --enable-libx264 --enable-libx265 --enable-libxvid --enable-libaom --enable-libopenjpeg --enable-libvpx --enable-mediafoundation --enable-libass --enable-libfreetype --enable-libfribidi --enable-libharfbuzz --enable-libvidstab --enable-libvmaf --enable-libzimg --enable-amf --enable-cuda-llvm --enable-cuvid --enable-dxva2 --enable-d3d11va --enable-d3d12va --enable-ffnvcodec --enable-libvpl --enable-nvdec --enable-nvenc --enable-vaapi --enable-openal --enable-libgme --enable-libopenmpt --enable-libopencore-amrwb --enable-libmp3lame --enable-libtheora --enable-libvo-amrwbenc --enable-libgsm --enable-libopencore-amrnb --enable-libopus --enable-libspeex --enable-libvorbis --enable-librubberband
[2026-03-15 11:57:43] [VOICE_STDOUT]   libavutil      60. 27.100 / 60. 27.100
[2026-03-15 11:57:43] [VOICE_STDOUT]   libavcodec     62. 29.100 / 62. 29.100
[2026-03-15 11:57:43] [VOICE_STDOUT]   libavformat    62. 13.100 / 62. 13.100
[2026-03-15 11:57:43] [VOICE_STDOUT]   libavdevice    62.  4.100 / 62.  4.100
[2026-03-15 11:57:43] [VOICE_STDOUT]   libavfilter    11. 15.101 / 11. 15.101
[2026-03-15 11:57:43] [VOICE_STDOUT]   libswscale      9.  6.100 /  9.  6.100
[2026-03-15 11:57:43] [VOICE_STDOUT]   libswresample   6.  4.100 /  6.  4.100
[2026-03-15 11:57:43] [VOICE_STDOUT] [in#0/mp3 @ 0000026224be7800] Estimating duration from bitrate, this may be inaccurate
[2026-03-15 11:57:43] [VOICE_STDOUT] Input #0, mp3, from 'C:\Users\anden\AppData\Local\Temp\tmp7m5iblhm.mp3':
[2026-03-15 11:57:43] [VOICE_STDOUT]   Duration: 00:00:02.57, start: 0.000000, bitrate: 48 kb/s
[2026-03-15 11:57:43] [VOICE_STDOUT]   Stream #0:0: Audio: mp3 (mp3float), 24000 Hz, mono, fltp, 48 kb/s
[2026-03-15 11:57:43] [VOICE_STDOUT] Stream mapping:
[2026-03-15 11:57:43] [VOICE_STDOUT]   Stream #0:0 (mp3float) -> asplit:default
[2026-03-15 11:57:43] [VOICE_STDOUT]   volume:default -> Stream #0:0 (pcm_s16le)
[2026-03-15 11:57:43] [VOICE_STDOUT] Press [q] to stop, [?] for help
[2026-03-15 11:57:43] [VOICE_STDOUT] [Parsed_chorus_10 @ 0000026224c605c0] output gain can cause saturation or clipping of output
[2026-03-15 11:57:43] [VOICE_STDOUT] [Parsed_volume_13 @ 0000026224c5fa00] Invalid value NaN for volume
[2026-03-15 11:57:43] [VOICE_STDOUT] [Parsed_volume_13 @ 0000026224c5fa00] Failed to configure output pad on Parsed_volume_13
[2026-03-15 11:57:43] [VOICE_STDOUT] [fc#0 @ 0000026224bd6d00] Error reinitializing filters!
[2026-03-15 11:57:43] [VOICE_STDOUT] [fc#0 @ 0000026224bd6d00] Task finished with error code: -22 (Invalid argument)
[2026-03-15 11:57:43] [VOICE_STDOUT] [fc#0 @ 0000026224bd6d00] Terminating thread with return code -22 (Invalid argument)
[2026-03-15 11:57:43] [VOICE_STDOUT] [aost#0:0/pcm_s16le @ 0000026224bdcb00] [enc:pcm_s16le @ 0000026224bb94c0] Could not open encoder before EOF
[2026-03-15 11:57:43] [VOICE_STDOUT] [aost#0:0/pcm_s16le @ 0000026224bdcb00] Task finished with error code: -22 (Invalid argument)
[2026-03-15 11:57:43] [VOICE_STDOUT] [aost#0:0/pcm_s16le @ 0000026224bdcb00] Terminating thread with return code -22 (Invalid argument)
[2026-03-15 11:57:43] [VOICE_STDOUT] [out#0/wav @ 0000026224be5840] Nothing was written into output file, because at least one of its streams received no packets.
[2026-03-15 11:57:43] [VOICE_STDOUT] size=       0KiB time=N/A bitrate=N/A speed=N/A elapsed=0:00:00.00    
[2026-03-15 11:57:43] [VOICE_STDOUT] Conversion failed!
[2026-03-15 11:57:43] [VOICE_STDERR] [mp3 @ 000002C6AE61E780] Estimating duration from bitrate, this may be inaccurate
[2026-03-15 11:57:43] [VOICE_STDERR] Input #0, mp3, from 'C:/Users/anden/AppData/Local/Temp/tmp7m5iblhm.mp3':
[2026-03-15 11:57:43] [VOICE_STDERR]   Duration: 00:00:02.57, start: 0.000000, bitrate: 48 kb/s
[2026-03-15 11:57:43] [VOICE_STDERR]   Stream #0:0: Audio: mp3 (mp3float), 24000 Hz, mono, fltp, 48 kb/s
[2026-03-15 11:57:43] [INFO] Voice line completed: Restart failed.
[2026-03-15 11:57:43] [INFO] Failure voice step 3/3 success=True line=Restart failed.
[2026-03-15 11:57:43] [INFO] Diagnostics process launched.
